<svg width="24" height="24" viewBox="0 0 24 24" xmlns="http://www.w3.org/2000/svg"><path fill-rule="evenodd" clip-rule="evenodd" d="M12 3.45001C7.28605 3.45001 3.45105 7.28501 3.45105 12C3.45105 16.715 7.28605 20.55 12.001 20.55C16.7161 20.55 20.55 16.715 20.55 12C20.55 7.28501 16.715 3.45001 12 3.45001ZM15.4871 11.5H12.499V9.27601C13.345 9.22701 14.166 9.05701 14.945 8.77201C15.255 9.63801 15.4411 10.555 15.4871 11.501V11.5ZM9.05305 8.77101C9.83205 9.05601 10.653 9.22701 11.499 9.27601V11.501H8.51105C8.55705 10.554 8.74305 9.63801 9.05305 8.77201V8.77101ZM11.499 8.17601C10.805 8.13001 10.132 7.98901 9.49105 7.76001C9.98905 6.76001 10.66 5.84601 11.499 5.06601V8.17601ZM8.51305 12.5H11.499V14.725C10.659 14.773 9.84305 14.942 9.06905 15.224C8.75505 14.36 8.56405 13.446 8.51305 12.5ZM11.499 15.824V18.885C10.672 18.116 10.008 17.217 9.51205 16.233C10.147 16.008 10.813 15.87 11.499 15.824ZM12.499 15.824C13.185 15.869 13.851 16.007 14.486 16.232C13.99 17.215 13.326 18.115 12.499 18.884V15.824ZM12.499 14.724V12.499H15.484C15.4331 13.444 15.2421 14.358 14.9281 15.222C14.154 14.94 13.34 14.772 12.499 14.724ZM12.499 8.17501V5.06701C13.338 5.84601 14.009 6.76001 14.507 7.76001C13.866 7.98901 13.193 8.12901 12.499 8.17501ZM13.545 4.71201C14.8 4.97801 15.936 5.56401 16.872 6.37601C16.425 6.76401 15.941 7.09701 15.425 7.36501C14.9471 6.39401 14.314 5.50201 13.545 4.71201ZM8.57405 7.36401C8.05805 7.09601 7.57405 6.76501 7.12705 6.37701C8.06205 5.56501 9.19805 4.98001 10.452 4.71301C9.68305 5.50201 9.05105 6.39301 8.57405 7.36401ZM8.14105 8.37501C7.78005 9.36501 7.55705 10.413 7.51005 11.499H4.57505C4.68605 9.84601 5.33305 8.34001 6.35005 7.15601C6.89905 7.64201 7.50005 8.05101 8.14105 8.37601V8.37501ZM7.51205 12.499C7.56705 13.571 7.79905 14.617 8.16905 15.609C7.51705 15.936 6.90805 16.35 6.35105 16.843C5.33305 15.658 4.68605 14.152 4.57505 12.499H7.51305H7.51205ZM8.60705 16.618C9.09705 17.604 9.74205 18.509 10.521 19.301C9.23905 19.042 8.07905 18.449 7.12705 17.622C7.58405 17.226 8.07805 16.889 8.60705 16.618ZM15.39 16.618C15.9191 16.889 16.415 17.225 16.872 17.622C15.919 18.449 14.758 19.043 13.476 19.302C14.255 18.509 14.9001 17.604 15.39 16.618ZM15.8291 15.609C16.199 14.617 16.4311 13.571 16.4851 12.499H19.424C19.313 14.152 18.666 15.658 17.649 16.843C17.0911 16.35 16.4811 15.937 15.8291 15.609ZM16.4881 11.499C16.4401 10.414 16.2181 9.36601 15.857 8.37701C16.4991 8.05201 17.0981 7.64201 17.6481 7.15601C18.6651 8.34101 19.313 9.84701 19.424 11.5H16.4881V11.499Z" fill="inherit"></path></svg>